<svg class="icon" style="width: 1em;height: 1em;vertical-align: middle;fill: currentColor;overflow: hidden;" viewBox="0 0 1024 1024" transform="scale(0.8)" version="1.1" xmlns="http://www.w3.org/2000/svg" p-id="26177"><path d="M511.900435 0.199129H51.190044a51.190044 51.190044 0 0 0-51.190044 51.190044v921.420783a51.190044 51.190044 0 0 0 51.190044 51.190044h409.520348a51.190044 51.190044 0 0 0 0-102.380087H153.570131a51.190044 51.190044 0 0 1-51.190044-51.190044V153.76926a51.190044 51.190044 0 0 1 51.190044-51.190044h716.660609a51.190044 51.190044 0 0 1 51.190044 51.190044v570.359465a51.190044 51.190044 0 0 0 102.380087 0V51.389173a51.190044 51.190044 0 0 0-51.190044-51.190044z" fill="#FF9900" p-id="26178"></path><path d="M639.158884 471.14753a44.177008 44.177008 0 0 1 16.380814 68.031568 54.517396 54.517396 0 0 1-16.380814 13.565361L450.062863 657.530478a66.803007 66.803007 0 0 1-81.90407-13.821311A43.153207 43.153207 0 0 1 358.330305 616.680824V407.569496A54.824537 54.824537 0 0 1 417.454805 358.529434 67.826808 67.826808 0 0 1 450.472383 366.771031z" fill="#FF9900" p-id="26179"></path></svg>