<svg class="icon" style="width: 1em;height: 1em;vertical-align: middle;fill: currentColor;overflow: hidden;" viewBox="0 0 1024 1024" version="1.1" xmlns="http://www.w3.org/2000/svg" p-id="40524"><path d="M611.3 591.5c8.8-15.2 16.8-47.5-13.9-49.8-15.6-1.2-28.9-1.2-28.9-1.2l-18.4-15c17.6-91.3-9.8-186-8.8-206.1 1.8-33.6 9.3-73.5 9.3-73.5 1.9-1.1 10.5-6.5 14.2-9 4.6-3 18-16.8 18-16.8 12.2-11.3 22.2-25.8 30.4-42.5 17.4-35.7 4.1-79.6 4.1-79.6H428.4s14.8 21.4 15.8 43.9c0 0-0.4 6.9-0.5 7.1 0 0-1.5 11.6-3.7 15.1-37.5 29.2-145.3 166.3-145.3 166.3s-33 42-1.2 73.5C315.1 422 463 542.2 463 542.2l34.3 168.6s14.3 110 14.3 128.5-14.1 63.5-15.4 67.1c-1.4 3.7-8.1 7.7-11 10.4-2.9 2.7-24.1 7-25.5 9.3-1.4 2.2-9.1 12.8-0.6 19.3s32.3 6.9 46.9 3.4c10.2-5.9 21.3-9.1 30.7-19.5 9.4-10.4 13.9-33 23.7-53.6 9.8-20.6 33-12.9 38.2-38.2 4.1-12.2-27.2-45.1-27.2-45.1L558 718.9l-4.6-89.7-1.6-19.2s34.5 39 34.6 51.6-2.7 26.8 1.7 41.7c4.4 14.9 8.5 27.1 19.1 22 10.6-5.1 19.1-35.3 19.1-51.5 0-16.3-19.8-69.6-15-82.3zM374 373.5v-5.4s23.9-11.7 34.5-21.2c10.7-9.5 34.4-32 34.4-32l8.5 102.6s-51.7-47.8-77.4-44z" fill="#808080" p-id="40525"></path></svg>